<?xml version="1.0" encoding="UTF-8"?>
<svg 
    xmlns="http://www.w3.org/2000/svg" 
    viewBox="0 0 1262.64 1133.58"
>
    <defs>
        <style>.e{fill:currentColor;}</style>
    </defs>
    <g id="a"/>
    <g id="b">
        <g id="c">
            <g>
                <path class="e" d="M941.56,305.24l153.59-.08c.11-3.44,1.99-5.99,5.63-7.63,3.63-1.64,8.32-2.47,14.07-2.47s10.63,.83,14.28,2.49,5.47,4.46,5.48,8.38l-.09,34.08c.02,5.29-2.33,10.47-7.04,15.53-4.71,5.06-10.7,9.13-17.97,12.2-5.48,2.33-13.01,4.76-22.57,7.28-9.57,2.52-19.07,4.42-28.52,5.69-9.45,1.28-21,1.92-34.66,1.92h-18.77c-16.6,.02-31.32-1.14-44.15-3.46-12.84-2.32-23.32-5.38-31.44-9.16s-14.1-7.34-17.94-10.67c-6.02-5.29-9.04-12.15-9.06-20.57l-.1-32.73c-.01-3.92,1.8-6.71,5.43-8.38,3.63-1.67,8.39-2.51,14.26-2.51,5.75,0,10.47,.83,14.18,2.49,3.71,1.67,5.5,4.19,5.39,7.58Zm.05,16.28l.05,17.32c.02,6.46,2.27,11.33,6.74,14.61,5.89,4.29,13.36,7.51,22.43,9.68,9.07,2.17,20.82,3.25,35.25,3.24h18.57c12.38-.02,23.23-1,32.55-2.97,14.55-3.08,24.52-6.54,29.94-10.38,5.41-3.84,8.11-8.65,8.1-14.42l-.05-17.16-153.59,.08Z"/><path class="e" d="M1014.17,439.28l-111.5-15.03-.06-18.27,192.82-9.79c.76-2.49,2.83-4.37,6.2-5.64,3.38-1.27,7.69-1.91,12.92-1.91,6.12,0,11.04,.83,14.75,2.49,3.71,1.67,5.57,4.46,5.58,8.38l-.13,21.68c.01,3.92-1.77,6.71-5.34,8.38-3.57,1.67-8.29,2.51-14.17,2.51-5.87,0-10.63-.83-14.27-2.49-3.64-1.67-5.47-4.46-5.48-8.38l-.03-8.5-109.72,5.46,91.38,12.74,.05,16.92-91.31,12.76,109.75,5.34-.03-8.5c-.01-3.92,1.8-6.71,5.43-8.38s8.38-2.51,14.26-2.51c5.87,0,10.63,.83,14.28,2.49,3.64,1.67,5.47,4.46,5.48,8.38l-.13,21.61c.01,3.92-1.77,6.71-5.34,8.38-3.57,1.67-8.29,2.51-14.17,2.51-4.98,0-9.26-.66-12.84-1.98-3.58-1.32-5.88-3.23-6.91-5.72l-192.87-9.27-.05-17.95,111.41-15.71Z"/><path class="e" d="M996.56,570.99l-.21-68,35.81-.02,.21,68-35.81,.02Z"/><path class="e" d="M966.56,654.41l-.12-39.56-23.95-3.96v3.97c.02,3.92-1.79,6.71-5.42,8.38-3.63,1.67-8.39,2.51-14.26,2.51s-10.44-.83-14.08-2.5-5.47-4.46-5.48-8.38l-.07-21.92c-.01-3.92,1.8-6.71,5.43-8.38,3.63-1.67,8.39-2.51,14.26-2.51,5.87,0,10.66,.87,14.37,2.61s5.44,4.63,5.2,8.66l153.66,25.5-.03-10.64c-.01-3.92,1.8-6.71,5.43-8.38s8.38-2.51,14.26-2.51c5.87,0,10.63,.83,14.28,2.49,3.64,1.67,5.47,4.46,5.48,8.38l-.09,35.19-192.74,32.51c.01,3.81-1,6.33-3.04,7.55-4.21,2.44-9.76,3.66-16.65,3.66-5.75,0-10.44-.82-14.08-2.46-3.64-1.64-5.47-4.42-5.48-8.34l-.07-21.92c-.01-3.92,1.8-6.71,5.43-8.38s8.39-2.51,14.26-2.51c5.75,0,10.44,.83,14.08,2.49,3.65,1.67,5.47,4.46,5.49,8.38v3.97l23.94-3.9Zm39.24-6.77l77.71-13.15-77.79-13.15,.08,26.29Z"/><path class="e" d="M1096.42,725.28l-153.59,.08,.11,35.11,37.15-.02c9.45,0,16.19,.75,20.21,2.25s6.04,3.48,6.05,5.92c0,2.38-2,4.33-6.02,5.84-4.02,1.51-10.75,2.27-20.2,2.27l-76.41,.04-.23-77.13c-.01-3.92,1.8-6.71,5.43-8.38s8.39-2.51,14.26-2.51c5.75,0,10.44,.83,14.08,2.5,3.65,1.67,5.47,4.46,5.49,8.38l.03,9.45,153.59-.08-.03-9.45c-.01-3.92,1.8-6.71,5.43-8.38,3.63-1.67,8.38-2.51,14.26-2.51,5.87,0,10.63,.83,14.28,2.49s5.47,4.46,5.48,8.38l-.09,35.27c.01,3.92-1.77,6.71-5.34,8.38-3.57,1.67-8.29,2.51-14.17,2.51-5.87,0-10.63-.83-14.27-2.49-3.64-1.67-5.47-4.46-5.48-8.38l-.03-9.53Z"/></g></g><g id="d"><path class="e" d="M1262.64,477.37l-1.58,80.31c.11,30.58,2.35,61.1-3.14,95.28-8.83,54.96-15.9,100.82-39.06,155.18-19.6,45.99-44.13,101.68-77,137.08-29.2,31.45-56.68,59.36-86.66,78.42-44.59,28.35-131.63,77.61-211.09,92.19-63.94,11.73-126.76,17.68-201.4,17.73-43.2,.03-87.39,.54-128.02-4.06-37.45-4.24-67.77-12.24-103.04-20.4-36.11-8.36-66.57-21.59-95.23-34.01-29.7-12.87-50.18-23.86-76.49-39.46-32.62-19.08-81.34-47.58-120.19-89.81-38.85-42.22-51.24-65.59-68.67-100.71-10.73-21.63-18.56-38.64-24.96-72.14-6.62-34.6-22.61-86.56-23.39-121.14L.26,565.46c-.04-.59,0-20.29-.26-23.39l15.26-120.28c3.93-16.88,27.38-87.64,34.37-111.62,7.43-25.49,22.28-51.44,35.92-77.59,9.45-18.1,44.14-53.5,64.02-73.51,29.79-29.97,43.48-44.65,89-74.88,34.1-22.65,62.37-33.39,99.93-44.94,43.44-13.35,83.66-22.14,132.71-27.25C518.11,7.12,567.01,.04,625.57,0c39.09-.03,76.98,1.79,113.66,5.46,42.25,4.22,82.91,10.89,121.98,20,37.66,8.79,72.49,19.39,104.49,31.81,30,11.64,57.51,24.87,82.53,39.69,33.73,19.66,69.72,50.61,108.02,92.83,38.28,42.23,53.99,78.65,72.07,113.37,24.84,49.77,23.61,106.74,34.31,174.22Zm-65.57,20.43c-.13-36.8-8.81-92.17-14.02-130.67-4.54-33.56-24.53-73.09-42.13-100.72-19.36-30.36-41.03-46.76-68.68-72.13-26.35-24.18-63.43-44.17-86.49-61.39-28.12-20.23-94.13-46.53-141.9-58.78-44.57-11.42-101.78-27.59-167.82-28.81-32.99-.61-80.09-.6-112.41,1.25-44.17,2.52-87.88,11.13-123.65,17.17-43.56,7.36-85.78,26.44-122.39,43.17-37.19,16.99-70.78,39.97-103.24,70.24-33.54,31.28-57.1,57.34-78.85,100.35-13.88,27.45-30.3,59.39-39.05,88.48-14.09,46.88-32.97,97.34-32.81,140.2l3.1,108.89c.16,43.27,6.02,107.1,20.26,159.25,8.43,30.88,29.64,59.5,43.7,81.66,37.79,59.6,110.29,99.3,158.66,134.57,26.99,19.66,83.07,32.71,127.99,47.13,64.01,20.79,136.4,31.17,217.16,31.11,47.48-.03,167.72,5.41,219.06-6.73,118.43-28.01,174.86-93.41,237.26-151.81,35.75-33.46,61.5-82.5,74.96-122.52,8.25-24.53,12.77-42.26,15.85-68.38,4.46-37.84,14.22-70.79,14.07-110.25l1.36-111.29Z"/><path class="e" d="M876.18,68.23l-27.11,818.31,165.58-2.66c16.71,.48,108.74-9.21,123.05-7.93,8.81,.79-5.56,8.19-13.01,11.84-14.16,6.94-63.03,20.13-75.59,24.37-10.26,3.47-43.56,3.63-65.66,4.61l-437.25-.24c-18.32,0-61.55,1.2-74.93-3.99-9.93-3.85-82.89-14.2-90.72-17.46-13.21-5.51-50.82-15.04-43.07-16.24,11.05-1.7,151.97,8.56,170.3,8.55l303.41-2.08,1.83-760.6-233.5,63.68c-12.22,2.69-58.36,13.25-69.67,14.69-4.37,.56-27.31,9.33-42.11,9.8-6.09,.19-29.32,7.47-46.49,10.58-11.42,2.07-28.19,7.44-38.47,9.18-13.93,2.36-28.48,7.75-29.86,6.73-4.74-3.46,14.9-12.49,29.08-20.77,8.73-5.1,35.52-14.99,37.81-17.51,5.86-6.44,18.62-9.56,24.49-12.94,8.36-4.82,16.02-7.17,20.92-8.87,15.13-4.7,35.49-12.18,50.74-16.22l360.22-94.84Z"/><path class="e" d="M772.16,507.57l-.88,44.6c.06,16.98,1.31,33.93-1.74,52.92-4.91,30.53-8.83,55.99-21.69,86.18-10.89,25.54-24.51,56.47-42.76,76.13-16.22,17.46-31.48,32.96-48.13,43.55-24.77,15.75-73.1,43.1-117.24,51.2-35.51,6.51-70.4,9.82-111.85,9.85-23.99,.02-48.53,.3-71.1-2.26-20.8-2.35-37.64-6.8-57.22-11.33-20.06-4.64-36.97-11.99-52.89-18.89-16.49-7.15-27.87-13.25-42.48-21.91-18.11-10.59-45.18-26.42-66.75-49.88-21.58-23.45-28.46-36.42-38.14-55.93-5.96-12.01-10.31-21.46-13.86-40.06s-12.56-48.07-12.99-67.28l-1.37-47.96c-.02-.33,0-11.27-.14-12.99l8.47-66.8c2.18-9.38,15.21-48.67,19.09-61.99,4.13-14.16,12.37-28.57,19.95-43.09,5.25-10.05,24.51-29.71,35.56-40.83,16.54-16.64,24.15-24.8,49.43-41.59,18.94-12.58,34.64-18.55,55.5-24.96,24.12-7.41,46.46-12.3,73.7-15.13,26.04-2.71,53.21-6.65,85.73-6.67,21.71-.01,42.75,1,63.12,3.03,23.47,2.34,46.05,6.05,67.75,11.1,20.92,4.88,40.26,10.77,58.03,17.67,16.66,6.46,31.94,13.81,45.83,22.04,18.73,10.92,38.72,28.11,59.99,51.55,21.26,23.45,29.99,43.68,40.03,62.96,13.79,27.64,13.11,59.28,19.06,96.76Zm-36.42,11.35c-.07-20.44-4.89-51.19-7.79-72.57-2.52-18.64-13.62-40.59-23.4-55.93-10.75-16.86-22.79-25.97-38.14-40.06-14.64-13.43-35.23-24.53-48.03-34.09-15.62-11.24-52.28-25.84-78.81-32.64-24.75-6.34-56.52-15.33-93.2-16-18.32-.34-44.48-.33-62.43,.69-24.53,1.4-48.81,6.18-68.67,9.54-24.19,4.09-47.64,14.68-67.97,23.97-20.65,9.44-39.31,22.2-57.33,39.01-18.63,17.37-31.71,31.85-43.79,55.73-7.71,15.24-16.83,32.99-21.69,49.14-7.83,26.04-18.31,54.06-18.22,77.86l1.72,60.47c.09,24.03,3.34,59.48,11.25,88.44,4.68,17.15,16.46,33.04,24.27,45.35,20.99,33.1,61.25,55.15,88.12,74.74,14.99,10.92,46.13,18.16,71.08,26.18,35.55,11.55,75.75,17.31,120.61,17.28,26.37-.02,93.15,3.01,121.66-3.74,65.77-15.56,97.11-51.88,131.76-84.31,19.85-18.58,34.16-45.82,41.63-68.04,4.58-13.63,7.09-23.47,8.8-37.98,2.48-21.02,7.9-39.31,7.82-61.23l.75-61.81Z"/><path class="e" d="M547.51,277.77l-15.3,454.47,93.39-1.48c9.42,.27,61.33-5.12,69.4-4.41,4.97,.44-3.14,4.55-7.34,6.58-7.99,3.85-35.55,11.18-42.64,13.53-5.79,1.92-24.57,2.01-37.03,2.56l-246.62-.13c-10.34,0-34.72,.67-42.26-2.21-5.6-2.14-46.76-7.88-51.17-9.7-7.45-3.06-28.66-8.35-24.29-9.02,6.23-.95,85.72,4.75,96.05,4.75l171.14-1.16,1.04-422.42-131.7,35.37c-6.89,1.5-32.92,7.36-39.3,8.16-2.46,.31-15.4,5.18-23.75,5.44-3.44,.11-16.54,4.15-26.22,5.87-6.44,1.15-15.9,4.13-21.7,5.1-7.86,1.31-16.06,4.3-16.84,3.74-2.68-1.92,8.4-6.94,16.4-11.53,4.93-2.83,20.04-8.32,21.33-9.72,3.3-3.58,10.5-5.31,13.81-7.19,4.72-2.68,9.04-3.98,11.8-4.93,8.53-2.61,20.02-6.76,28.62-9.01l203.18-52.67Z"/><path class="e" d="M503.07,519.59l-.49,24.9c.03,9.48,.73,18.94-.97,29.54-2.74,17.04-4.93,31.26-12.11,48.12-6.08,14.26-13.68,31.53-23.87,42.5-9.05,9.75-17.58,18.4-26.87,24.31-13.83,8.79-40.81,24.06-65.45,28.58-19.83,3.64-39.31,5.48-62.45,5.5-13.4,0-27.1,.17-39.69-1.26-11.61-1.31-21.01-3.79-31.95-6.32-11.2-2.59-20.64-6.69-29.53-10.55-9.21-3.99-15.56-7.4-23.72-12.24-10.11-5.92-25.22-14.75-37.27-27.85-12.05-13.09-15.89-20.34-21.29-31.23-3.33-6.71-5.75-11.98-7.74-22.37-2.05-10.73-7.01-26.84-7.25-37.56l-.76-26.78c-.01-.18,0-6.29-.08-7.25l4.73-37.3c1.22-5.24,8.49-27.18,10.66-34.61,2.3-7.9,6.91-15.95,11.14-24.06,2.93-5.61,13.69-16.59,19.85-22.79,9.24-9.29,13.48-13.84,27.6-23.22,10.57-7.02,19.34-10.35,30.98-13.93,13.47-4.14,25.94-6.86,41.15-8.45,14.54-1.51,29.71-3.71,47.86-3.72,12.12,0,23.87,.56,35.24,1.69,13.1,1.31,25.71,3.38,37.82,6.2,11.68,2.73,22.48,6.01,32.4,9.86,9.3,3.61,17.83,7.71,25.59,12.31,10.46,6.1,21.62,15.69,33.49,28.78,11.87,13.09,16.74,24.39,22.35,35.15,7.7,15.43,7.32,33.1,10.64,54.02Zm-20.33,6.33c-.04-11.41-2.73-28.58-4.35-40.52-1.41-10.41-7.61-22.66-13.06-31.23-6-9.41-12.72-14.5-21.29-22.36-8.17-7.5-19.67-13.7-26.82-19.04-8.72-6.27-29.19-14.43-44-18.22-13.82-3.54-31.56-8.56-52.03-8.93-10.23-.19-24.83-.19-34.85,.39-13.69,.78-27.25,3.45-38.34,5.32-13.51,2.28-26.6,8.2-37.95,13.38-11.53,5.27-21.95,12.39-32.01,21.78-10.4,9.7-17.7,17.78-24.45,31.11-4.3,8.51-9.4,18.42-12.11,27.44-4.37,14.54-10.22,30.18-10.17,43.47l.96,33.76c.05,13.42,1.87,33.21,6.28,49.38,2.61,9.57,9.19,18.45,13.55,25.32,11.72,18.48,34.2,30.79,49.2,41.73,8.37,6.1,25.76,10.14,39.69,14.61,19.85,6.45,42.29,9.66,67.34,9.65,14.72-.01,52,1.68,67.92-2.09,36.72-8.69,54.22-28.96,73.57-47.07,11.08-10.37,19.07-25.58,23.24-37.99,2.56-7.61,3.96-13.1,4.92-21.2,1.38-11.73,4.41-21.95,4.36-34.19l.42-34.51Z"/><path class="e" d="M379.96,391.29l-8.29,253.73,50.69-.82c5.11,.15,33.29-2.86,37.67-2.46,2.7,.24-1.7,2.54-3.98,3.67-4.34,2.15-19.29,6.24-23.14,7.56-3.14,1.07-13.33,1.12-20.1,1.43l-133.85-.08c-5.61,0-18.84,.37-22.94-1.24-3.04-1.19-25.37-4.4-27.77-5.42-4.04-1.71-15.56-4.66-13.18-5.03,3.38-.53,46.52,2.66,52.13,2.65l92.88-.64,.56-235.84-71.48,19.74c-3.74,.84-17.87,4.11-21.33,4.56-1.34,.17-8.36,2.89-12.89,3.04-1.86,.06-8.97,2.32-14.23,3.28-3.5,.64-8.63,2.31-11.78,2.85-4.26,.73-8.72,2.4-9.14,2.09-1.45-1.07,4.56-3.87,8.9-6.44,2.67-1.58,10.87-4.65,11.57-5.43,1.79-2,5.7-2.96,7.5-4.01,2.56-1.49,4.9-2.22,6.4-2.75,4.63-1.46,10.86-3.78,15.53-5.03l110.27-29.4Z"/><path class="e" d="M355.12,525.55l-.27,13.93c.02,5.31,.41,10.6-.55,16.53-1.53,9.54-2.76,17.49-6.78,26.92-3.4,7.98-7.66,17.64-13.36,23.78-5.07,5.46-9.83,10.3-15.04,13.61-7.74,4.92-22.84,13.47-36.63,15.99-11.09,2.04-21.99,3.07-34.94,3.08-7.5,0-15.16,.09-22.21-.7-6.5-.74-11.76-2.12-17.88-3.54-6.27-1.45-11.55-3.75-16.52-5.9-5.15-2.23-8.71-4.14-13.27-6.85-5.66-3.31-14.11-8.26-20.85-15.58-6.74-7.33-8.89-11.38-11.92-17.47-1.86-3.75-3.22-6.7-4.33-12.52-1.15-6-3.92-15.02-4.06-21.02l-.43-14.98c0-.1,0-3.52-.04-4.06l2.65-20.87c.68-2.93,4.75-15.21,5.96-19.37,1.29-4.42,3.87-8.93,6.23-13.46,1.64-3.14,7.66-9.28,11.11-12.75,5.17-5.2,7.54-7.75,15.44-12.99,5.92-3.93,10.82-5.79,17.34-7.8,7.54-2.32,14.52-3.84,23.03-4.73s16.62-2.08,26.78-2.08c6.78,0,13.36,.31,19.72,.95,7.33,.73,14.39,1.89,21.16,3.47,6.53,1.53,12.58,3.36,18.13,5.52,5.2,2.02,9.98,4.31,14.32,6.89,5.85,3.41,12.1,8.78,18.74,16.11,6.64,7.33,9.37,13.65,12.5,19.67,4.31,8.64,4.1,18.52,5.95,30.23Zm-11.38,3.54c-.02-6.38-1.53-15.99-2.43-22.67-.79-5.82-4.26-12.68-7.31-17.47-3.36-5.27-7.12-8.11-11.92-12.51-4.57-4.2-11.01-7.66-15.01-10.65-4.88-3.51-16.33-8.07-24.62-10.2-7.73-1.98-17.66-4.79-29.12-5-5.72-.11-13.9-.1-19.5,.22-7.66,.44-15.25,1.93-21.45,2.98-7.56,1.28-14.88,4.59-21.24,7.49-6.45,2.95-12.28,6.93-17.91,12.19-5.82,5.43-9.91,9.95-13.68,17.41-2.41,4.76-5.26,10.31-6.78,15.35-2.45,8.13-5.72,16.89-5.69,24.33l.54,18.89c.03,7.51,1.04,18.58,3.52,27.63,1.46,5.36,5.14,10.32,7.58,14.17,6.56,10.34,19.14,17.23,27.53,23.35,4.68,3.41,14.41,5.67,22.21,8.18,11.11,3.61,23.67,5.41,37.68,5.4,8.24,0,29.1,.94,38.01-1.17,20.55-4.86,30.34-16.21,41.17-26.34,6.2-5.8,10.67-14.31,13.01-21.26,1.43-4.26,2.22-7.33,2.75-11.87,.77-6.57,2.47-12.28,2.44-19.13l.24-19.31Z"/><path class="e" d="M285.23,452.76l-4.64,141.98,28.36-.46c2.86,.08,18.63-1.6,21.08-1.38,1.51,.14-.95,1.42-2.23,2.05-2.43,1.2-10.8,3.49-12.95,4.23-1.76,.6-7.46,.63-11.25,.8l-74.9-.04c-3.14,0-10.54,.21-12.84-.69-1.7-.67-14.2-2.46-15.54-3.03-2.26-.96-8.7-2.61-7.38-2.82,1.89-.3,26.03,1.49,29.17,1.48l51.97-.36,.31-131.97-40,11.05c-2.09,.47-10,2.3-11.93,2.55-.75,.1-4.68,1.62-7.21,1.7-1.04,.03-5.02,1.3-7.96,1.84-1.96,.36-4.83,1.29-6.59,1.59-2.39,.41-4.88,1.34-5.11,1.17-.81-.6,2.55-2.17,4.98-3.6,1.5-.88,6.08-2.6,6.48-3.04,1-1.12,3.19-1.66,4.2-2.25,1.43-.84,2.74-1.24,3.58-1.54,2.59-.82,6.08-2.11,8.69-2.81l61.7-16.45Z"/><path class="e" d="M272.75,528.81l-.16,8.01c.01,3.05,.23,6.09-.31,9.5-.88,5.48-1.59,10.05-3.9,15.47-1.95,4.59-4.4,10.14-7.68,13.67-2.91,3.14-5.65,5.92-8.64,7.82-4.45,2.83-13.13,7.74-21.05,9.19-6.38,1.17-12.64,1.76-20.08,1.77-4.31,0-8.71,.05-12.77-.4-3.73-.42-6.76-1.22-10.27-2.03-3.6-.83-6.64-2.15-9.5-3.39s-5-2.38-7.63-3.93c-3.25-1.9-8.11-4.74-11.99-8.96-3.87-4.21-5.11-6.54-6.85-10.04-1.07-2.16-1.85-3.85-2.49-7.19s-2.25-8.63-2.33-12.08l-.25-8.61c0-.06,0-2.02-.03-2.33l1.52-11.99c.39-1.68,2.73-8.74,3.43-11.13,.74-2.54,2.22-5.13,3.58-7.74,.94-1.81,4.4-5.34,6.38-7.33,2.97-2.99,4.34-4.45,8.88-7.47,3.4-2.26,6.22-3.33,9.96-4.48,4.33-1.33,8.34-2.21,13.23-2.72s9.55-1.19,15.39-1.2c3.9,0,7.68,.18,11.33,.54,4.21,.42,8.27,1.09,12.16,1.99,3.76,.88,7.23,1.93,10.42,3.17,2.99,1.16,5.73,2.48,8.23,3.96,3.36,1.96,6.95,5.05,10.77,9.26,3.82,4.21,5.38,7.84,7.19,11.31,2.48,4.96,2.35,10.64,3.42,17.37Zm-6.54,2.04c-.01-3.67-.88-9.19-1.4-13.03-.45-3.35-2.45-7.29-4.2-10.04-1.93-3.03-4.09-4.66-6.85-7.19s-6.33-4.4-8.62-6.12c-2.8-2.02-9.39-4.64-14.15-5.86-4.44-1.14-10.15-2.75-16.73-2.87-3.29-.06-7.99-.06-11.21,.12-4.4,.25-8.76,1.11-12.33,1.71-4.34,.73-8.55,2.64-12.2,4.3s-7.06,3.99-10.29,7c-3.34,3.12-5.69,5.72-7.86,10.01-1.38,2.74-3.02,5.92-3.89,8.82-1.41,4.67-3.29,9.71-3.27,13.98l.31,10.86c.02,4.31,.6,10.68,2.02,15.88,.84,3.08,2.96,5.93,4.36,8.14,3.77,5.94,11,9.9,15.82,13.42,2.69,1.96,8.28,3.26,12.76,4.7,6.38,2.07,13.6,3.11,21.66,3.1,4.74,0,16.72,.54,21.84-.67,11.81-2.79,17.44-9.31,23.66-15.14,3.56-3.34,6.13-8.23,7.48-12.22,.82-2.45,1.27-4.21,1.58-6.82,.44-3.77,1.42-7.06,1.4-10.99l.14-11.1Z"/>
            </g>
        </g>
</svg>